<svg width="24" height="24" viewBox="0 0 24 24" fill="none" xmlns="http://www.w3.org/2000/svg">
<path fill-rule="evenodd" clip-rule="evenodd" d="M3.2475 11.3912C3.2475 7.59375 7.17375 4.50375 12 4.50375C16.8263 4.50375 20.7525 7.59375 20.7525 11.3912C20.7525 15.19 16.8263 18.2788 12 18.2788C7.17375 18.2788 3.2475 15.19 3.2475 11.3912ZM21.7975 21.105V21.1025C21.7975 21.1025 19.8425 18.2775 20.8387 17.2075L20.7925 17.2325C22.3263 15.6275 23.25 13.5987 23.25 11.3912C23.25 6.21375 18.2037 2 12 2C5.79625 2 0.75 6.2125 0.75 11.3912C0.75 16.57 5.79625 20.7838 12 20.7838C13.775 20.7838 15.45 20.4275 16.9462 19.8137C18.2 21.0912 19.805 21.7787 20.9963 21.9625L20.9987 21.9587C21.0644 21.9834 21.1336 21.9973 21.2038 22C21.31 22 21.4147 21.9736 21.5083 21.9233C21.6019 21.873 21.6817 21.8002 21.7403 21.7116C21.799 21.623 21.8348 21.5212 21.8446 21.4153C21.8543 21.3095 21.8377 21.2029 21.7962 21.105H21.7975Z" fill="#42526E"/>
<path d="M17 8.25H7C6.30964 8.25 5.75 8.80964 5.75 9.5C5.75 10.1904 6.30964 10.75 7 10.75H17C17.6904 10.75 18.25 10.1904 18.25 9.5C18.25 8.80964 17.6904 8.25 17 8.25Z" fill="#42526E"/>
<path d="M10.75 12H7C6.30964 12 5.75 12.5596 5.75 13.25C5.75 13.9404 6.30964 14.5 7 14.5H10.75C11.4404 14.5 12 13.9404 12 13.25C12 12.5596 11.4404 12 10.75 12Z" fill="#42526E"/>
</svg>
