<svg width="24" height="24" viewBox="0 0 24 24" fill="none" xmlns="http://www.w3.org/2000/svg">
<path fill-rule="evenodd" clip-rule="evenodd" d="M4.12275 11.4521C4.12275 8.03437 7.65637 5.25337 12 5.25337C16.3436 5.25337 19.8773 8.03437 19.8773 11.4521C19.8773 14.871 16.3436 17.6509 12 17.6509C7.65637 17.6509 4.12275 14.871 4.12275 11.4521ZM20.8177 20.1945V20.1922C20.8177 20.1922 19.0582 17.6498 19.9549 16.6868L19.9133 16.7093C21.2936 15.2648 22.125 13.4389 22.125 11.4521C22.125 6.79237 17.5834 3 12 3C6.41663 3 1.875 6.79125 1.875 11.4521C1.875 16.113 6.41663 19.9054 12 19.9054C13.5975 19.9054 15.105 19.5847 16.4516 19.0324C17.58 20.1821 19.0245 20.8009 20.0966 20.9662L20.0989 20.9629C20.158 20.985 20.2203 20.9976 20.2834 21C20.379 21 20.4732 20.9763 20.5575 20.931C20.6418 20.8857 20.7135 20.8202 20.7663 20.7404C20.8191 20.6607 20.8513 20.5691 20.8601 20.4738C20.8689 20.3785 20.854 20.2826 20.8166 20.1945H20.8177Z" fill="#42526E"/>
<path d="M16.5 8.625H7.5C6.87868 8.625 6.375 9.12868 6.375 9.75C6.375 10.3713 6.87868 10.875 7.5 10.875H16.5C17.1213 10.875 17.625 10.3713 17.625 9.75C17.625 9.12868 17.1213 8.625 16.5 8.625Z" fill="#42526E"/>
<path d="M10.875 12H7.5C6.87868 12 6.375 12.5037 6.375 13.125C6.375 13.7463 6.87868 14.25 7.5 14.25H10.875C11.4963 14.25 12 13.7463 12 13.125C12 12.5037 11.4963 12 10.875 12Z" fill="#42526E"/>
</svg>
