<svg width="24" height="24" viewBox="0 0 24 24" fill="none" xmlns="http://www.w3.org/2000/svg">
<path fill-rule="evenodd" clip-rule="evenodd" d="M19.3356 9.60865C19.3356 6.1276 15.7366 3.2951 11.3125 3.2951C6.88844 3.2951 3.28937 6.1276 3.28937 9.60865C3.28937 13.0908 6.88844 15.9222 11.3125 15.9222C15.7366 15.9222 19.3356 13.0908 19.3356 9.60865ZM2.33146 18.5129V18.5106C2.33146 18.5106 4.12354 15.921 3.21031 14.9402L3.25271 14.9631C1.84677 13.4919 0.999997 11.6322 0.999997 9.60865C0.999997 4.8626 5.62573 1 11.3125 1C16.9993 1 21.625 4.86146 21.625 9.60865C21.625 14.3558 16.9993 18.2184 11.3125 18.2184C9.68542 18.2184 8.15 17.8919 6.77844 17.3293C5.62916 18.5003 4.15791 19.1305 3.06593 19.299L3.06364 19.2955C3.00343 19.3181 2.93999 19.3309 2.87573 19.3333C2.77829 19.3333 2.68237 19.3091 2.59654 19.263C2.51071 19.2169 2.43764 19.1502 2.38385 19.069C2.33007 18.9877 2.29724 18.8944 2.28829 18.7974C2.27935 18.7004 2.29457 18.6026 2.3326 18.5129H2.33146Z" fill="#42526E"/>
<path d="M15.8958 6.72917H6.72916C6.09634 6.72917 5.58333 7.24218 5.58333 7.87501C5.58333 8.50783 6.09634 9.02084 6.72916 9.02084H15.8958C16.5287 9.02084 17.0417 8.50783 17.0417 7.87501C17.0417 7.24218 16.5287 6.72917 15.8958 6.72917Z" fill="#42526E"/>
<path d="M10.1667 10.1667H6.72916C6.09634 10.1667 5.58333 10.6797 5.58333 11.3125C5.58333 11.9453 6.09634 12.4583 6.72916 12.4583H10.1667C10.7995 12.4583 11.3125 11.9453 11.3125 11.3125C11.3125 10.6797 10.7995 10.1667 10.1667 10.1667Z" fill="#42526E"/>
<path fill-rule="evenodd" clip-rule="evenodd" d="M6.43921 17.6516C7.66238 20.2533 10.7892 22.1081 14.4444 22.1081C15.7943 22.1081 17.0681 21.8468 18.206 21.3967C19.1595 22.3336 20.3801 22.8377 21.286 22.9725L21.2879 22.9697C21.3379 22.9878 21.3905 22.998 21.4438 23C21.5247 23 21.6043 22.9807 21.6755 22.9437C21.7467 22.9068 21.8073 22.8535 21.8519 22.7885C21.8965 22.7235 21.9238 22.6489 21.9312 22.5712C21.9386 22.4936 21.926 22.4154 21.8944 22.3437H21.8954V22.3418C21.8954 22.3418 20.4086 20.2702 21.1663 19.4855L21.1311 19.5038C22.2975 18.3268 23 16.8391 23 15.2202C23 13.7452 22.4208 12.3769 21.4359 11.2549C21.2667 11.9814 20.9878 12.6755 20.6142 13.3247C20.9278 13.9103 21.1007 14.5502 21.1007 15.2202C21.1007 18.006 18.1148 20.2711 14.4444 20.2711C12.1075 20.2711 10.048 19.3528 8.86006 17.9665C8.13372 17.8152 7.43718 17.5995 6.77844 17.3293C6.66812 17.4417 6.55484 17.5491 6.43921 17.6516Z" fill="#42526E"/>
</svg>
