<svg width="24" height="24" viewBox="0 0 24 24" fill="none" xmlns="http://www.w3.org/2000/svg">
<path fill-rule="evenodd" clip-rule="evenodd" d="M20.0024 9.92169C20.0024 6.31406 16.2724 3.37856 11.6875 3.37856C7.10256 3.37856 3.37262 6.31406 3.37262 9.92169C3.37262 13.5305 7.10256 16.4648 11.6875 16.4648C16.2724 16.4648 20.0024 13.5305 20.0024 9.92169ZM2.37987 19.1498V19.1474C2.37987 19.1474 4.23712 16.4636 3.29069 15.4471L3.33462 15.4709C1.87756 13.9461 0.999998 12.0188 0.999998 9.92169C0.999998 5.00306 5.79394 1 11.6875 1C17.5811 1 22.375 5.00187 22.375 9.92169C22.375 14.8415 17.5811 18.8446 11.6875 18.8446C10.0012 18.8446 8.41 18.5061 6.98856 17.9231C5.7975 19.1367 4.27275 19.7898 3.14106 19.9644L3.13869 19.9608C3.07629 19.9842 3.01053 19.9975 2.94393 20C2.84295 20 2.74355 19.9749 2.6546 19.9271C2.56565 19.8793 2.48992 19.8102 2.43418 19.726C2.37843 19.6418 2.34441 19.5451 2.33514 19.4446C2.32587 19.344 2.34165 19.2427 2.38106 19.1498H2.37987Z" fill="#42526E"/>
<path d="M16.4375 6.93751H6.93749C6.28165 6.93751 5.74999 7.46917 5.74999 8.12501C5.74999 8.78085 6.28165 9.31251 6.93749 9.31251H16.4375C17.0933 9.31251 17.625 8.78085 17.625 8.12501C17.625 7.46917 17.0933 6.93751 16.4375 6.93751Z" fill="#42526E"/>
<path d="M10.5 10.5H6.93749C6.28165 10.5 5.74999 11.0317 5.74999 11.6875C5.74999 12.3433 6.28165 12.875 6.93749 12.875H10.5C11.1558 12.875 11.6875 12.3433 11.6875 11.6875C11.6875 11.0317 11.1558 10.5 10.5 10.5Z" fill="#42526E"/>
<path fill-rule="evenodd" clip-rule="evenodd" d="M7.84923 18.107C8.96825 20.4871 11.8289 22.184 15.1729 22.184C16.4078 22.184 17.5732 21.945 18.6142 21.5333C19.4865 22.3903 20.6032 22.8516 21.432 22.9748L21.4337 22.9723C21.4794 22.9889 21.5276 22.9982 21.5763 23C21.6503 23 21.7231 22.9823 21.7882 22.9485C21.8534 22.9148 21.9088 22.866 21.9497 22.8065C21.9905 22.7471 22.0154 22.6788 22.0222 22.6077C22.029 22.5367 22.0174 22.4652 21.9886 22.3995H21.9894V22.3979C21.9894 22.3979 20.6292 20.5026 21.3224 19.7847L21.2902 19.8015C22.3573 18.7247 23 17.3636 23 15.8826C23 14.5332 22.4701 13.2814 21.569 12.2549C21.4143 12.9195 21.1591 13.5545 20.8174 14.1485C21.1043 14.6842 21.2624 15.2697 21.2624 15.8826C21.2624 18.4312 18.5307 20.5034 15.1729 20.5034C13.0349 20.5034 11.1508 19.6633 10.064 18.3951C9.39947 18.2567 8.76223 18.0593 8.15957 17.8121C8.05865 17.9149 7.95501 18.0132 7.84923 18.107Z" fill="#42526E"/>
</svg>
