<svg width="24" height="24" viewBox="0 0 24 24" fill="none" xmlns="http://www.w3.org/2000/svg">
<path fill-rule="evenodd" clip-rule="evenodd" d="M18.0019 10.0434C18.0019 7.19531 15.0572 4.87781 11.4375 4.87781C7.81781 4.87781 4.87312 7.19531 4.87312 10.0434C4.87312 12.8925 7.81781 15.2091 11.4375 15.2091C15.0572 15.2091 18.0019 12.8925 18.0019 10.0434ZM4.08938 17.3288V17.3269C4.08938 17.3269 5.55563 15.2081 4.80844 14.4056L4.84312 14.4244C3.69281 13.2206 3 11.6991 3 10.0434C3 6.16031 6.78469 3 11.4375 3C16.0903 3 19.875 6.15937 19.875 10.0434C19.875 13.9275 16.0903 17.0878 11.4375 17.0878C10.1063 17.0878 8.85 16.8206 7.72781 16.3603C6.7875 17.3184 5.58375 17.8341 4.69031 17.9719L4.68844 17.9691C4.63918 17.9875 4.58726 17.998 4.53469 18C4.45496 18 4.37649 17.9802 4.30626 17.9425C4.23604 17.9047 4.17625 17.8502 4.13225 17.7837C4.08824 17.7172 4.06138 17.6409 4.05406 17.5615C4.04674 17.4821 4.0592 17.4022 4.09031 17.3288H4.08938Z" fill="black"/>
<path d="M15.1875 7.6875H7.6875C7.16973 7.6875 6.75 8.10723 6.75 8.625C6.75 9.14277 7.16973 9.5625 7.6875 9.5625H15.1875C15.7053 9.5625 16.125 9.14277 16.125 8.625C16.125 8.10723 15.7053 7.6875 15.1875 7.6875Z" fill="black"/>
<path d="M10.5 10.5H7.6875C7.16973 10.5 6.75 10.9197 6.75 11.4375C6.75 11.9553 7.16973 12.375 7.6875 12.375H10.5C11.0178 12.375 11.4375 11.9553 11.4375 11.4375C11.4375 10.9197 11.0178 10.5 10.5 10.5Z" fill="black"/>
<path fill-rule="evenodd" clip-rule="evenodd" d="M7.45026 16.624C8.45104 18.7527 11.0094 20.2702 14 20.2702C15.1044 20.2702 16.1467 20.0565 17.0777 19.6882C17.8578 20.4547 18.8564 20.8672 19.5977 20.9775L19.5992 20.9752C19.6401 20.99 19.6832 20.9984 19.7268 21C19.7929 21 19.858 20.9842 19.9163 20.954C19.9745 20.9238 20.0241 20.8801 20.0607 20.827C20.0972 20.7738 20.1194 20.7127 20.1255 20.6492C20.1316 20.5857 20.1213 20.5217 20.0954 20.463H20.0962V20.4615C20.0962 20.4615 18.8798 18.7665 19.4997 18.1245L19.4709 18.1395C20.4252 17.1765 21 15.9592 21 14.6347C21 13.4279 20.5261 12.3084 19.7202 11.3904C19.5819 11.9847 19.3537 12.5527 19.048 13.0838C19.3046 13.563 19.446 14.0866 19.446 14.6347C19.446 16.914 17.003 18.7672 14 18.7672C12.0879 18.7672 10.4029 18.0159 9.43097 16.8817C8.83669 16.7579 8.26679 16.5814 7.72781 16.3603C7.63755 16.4523 7.54487 16.5402 7.45026 16.624Z" fill="black"/>
</svg>
