<svg width="24" height="24" viewBox="0 0 24 24" fill="none" xmlns="http://www.w3.org/2000/svg">
<path fill-rule="evenodd" clip-rule="evenodd" d="M18.6687 9.82604C18.6687 6.66146 15.3969 4.08646 11.375 4.08646C7.35312 4.08646 4.08125 6.66146 4.08125 9.82604C4.08125 12.9917 7.35312 15.5656 11.375 15.5656C15.3969 15.5656 18.6687 12.9917 18.6687 9.82604ZM3.21042 17.9208V17.9188C3.21042 17.9188 4.83958 15.5646 4.00937 14.6729L4.04791 14.6938C2.76979 13.3563 2 11.6656 2 9.82604C2 5.51146 6.20521 2 11.375 2C16.5448 2 20.75 5.51042 20.75 9.82604C20.75 14.1417 16.5448 17.6531 11.375 17.6531C9.89583 17.6531 8.5 17.3563 7.25312 16.8448C6.20833 17.9094 4.87083 18.4823 3.87812 18.6354L3.87604 18.6323C3.8213 18.6528 3.76362 18.6644 3.70521 18.6667C3.61662 18.6666 3.52943 18.6447 3.4514 18.6027C3.37338 18.5608 3.30695 18.5002 3.25805 18.4263C3.20915 18.3525 3.17931 18.2677 3.17118 18.1794C3.16305 18.0912 3.17688 18.0024 3.21146 17.9208H3.21042Z" fill="#42526E"/>
<path d="M15.5417 7.20834H7.20833C6.63303 7.20834 6.16666 7.67471 6.16666 8.25C6.16666 8.8253 6.63303 9.29167 7.20833 9.29167H15.5417C16.117 9.29167 16.5833 8.8253 16.5833 8.25C16.5833 7.67471 16.117 7.20834 15.5417 7.20834Z" fill="#42526E"/>
<path d="M10.3333 10.3333H7.20833C6.63303 10.3333 6.16666 10.7997 6.16666 11.375C6.16666 11.9503 6.63303 12.4167 7.20833 12.4167H10.3333C10.9086 12.4167 11.375 11.9503 11.375 11.375C11.375 10.7997 10.9086 10.3333 10.3333 10.3333Z" fill="#42526E"/>
<path fill-rule="evenodd" clip-rule="evenodd" d="M6.94473 17.1378C8.0567 19.503 10.8993 21.1892 14.2222 21.1892C15.4494 21.1892 16.6074 20.9517 17.6418 20.5425C18.5086 21.3942 19.6183 21.8525 20.4419 21.975L20.4436 21.9725C20.489 21.9889 20.5368 21.9982 20.5853 22C20.6588 22 20.7311 21.9824 20.7959 21.9489C20.8606 21.9153 20.9157 21.8668 20.9563 21.8077C20.9968 21.7486 21.0216 21.6808 21.0284 21.6102C21.0351 21.5397 21.0236 21.4686 20.9949 21.4033H20.9958V21.4017C20.9958 21.4017 19.6442 19.5183 20.333 18.805L20.301 18.8217C21.3614 17.7517 22 16.3992 22 14.9275C22 13.5866 21.4735 12.3426 20.578 11.3227C20.4243 11.9831 20.1707 12.6141 19.8311 13.2043C20.1162 13.7366 20.2733 14.3184 20.2733 14.9275C20.2733 17.46 17.5589 19.5192 14.2222 19.5192C12.0977 19.5192 10.2254 18.6844 9.14551 17.4241C8.4852 17.2866 7.85198 17.0904 7.25312 16.8448C7.15283 16.947 7.04985 17.0446 6.94473 17.1378Z" fill="#42526E"/>
</svg>
