<svg width="24" height="24" viewBox="0 0 24 24" fill="none" xmlns="http://www.w3.org/2000/svg">
<path d="M7.875 16.1281V18.9359C7.875 19.4546 8.29473 19.875 8.8125 19.875C9.33027 19.875 9.75 19.4546 9.75 18.9359V15.283C9.75 14.7127 9.28808 14.25 8.71875 14.25H5.0625C4.54473 14.25 4.125 14.6704 4.125 15.1891C4.125 15.7077 4.54473 16.1281 5.0625 16.1281H7.875Z" fill="#42526E"/>
<path d="M3.30644 20.7246C3.67324 21.0913 4.26812 21.0911 4.63077 20.7285L9.47938 15.8813C9.84399 15.5167 9.83771 14.9195 9.47543 14.5573L9.44355 14.5254C9.07676 14.1587 8.48188 14.1589 8.11923 14.5215L3.27062 19.3687C2.90601 19.7333 2.91229 20.3305 3.27457 20.6927L3.30644 20.7246Z" fill="#42526E"/>
<path fill-rule="evenodd" clip-rule="evenodd" d="M19.3689 3.27098L14.521 8.11848C14.1558 8.48355 14.1624 9.08102 14.5247 9.44327L14.5558 9.47432C14.9228 9.84127 15.5186 9.84127 15.8809 9.47808L20.7299 4.63152C21.0941 4.26645 21.0875 3.66898 20.7252 3.30673L20.6941 3.27568C20.5096 3.09221 20.2687 3 20.0278 3C19.7887 3 19.5496 3.09127 19.3689 3.27098Z" fill="#42526E"/>
<path fill-rule="evenodd" clip-rule="evenodd" d="M14.25 5.06437V8.71687C14.25 9.28687 14.7122 9.75 15.2813 9.75H18.9375C19.4559 9.75 19.875 9.32906 19.875 8.81063C19.875 8.29219 19.4559 7.87219 18.9375 7.87219H16.125V5.06437C16.125 4.545 15.705 4.125 15.1875 4.125C14.67 4.125 14.25 4.545 14.25 5.06437Z" fill="#42526E"/>
<path d="M16.1281 16.125H18.9359C19.4546 16.125 19.875 15.7053 19.875 15.1875C19.875 14.6697 19.4546 14.25 18.9359 14.25H15.283C14.7127 14.25 14.25 14.7119 14.25 15.2813V18.9375C14.25 19.4553 14.6704 19.875 15.1891 19.875C15.7077 19.875 16.1281 19.4553 16.1281 18.9375V16.125Z" fill="#42526E"/>
<path d="M20.7246 20.6936C21.0913 20.3268 21.0911 19.7319 20.7285 19.3692L15.8813 14.5206C15.5167 14.156 14.9195 14.1623 14.5573 14.5246L14.5254 14.5564C14.1587 14.9232 14.1589 15.5181 14.5215 15.8808L19.3687 20.7294C19.7333 21.094 20.3305 21.0877 20.6927 20.7254L20.7246 20.6936Z" fill="#42526E"/>
<path fill-rule="evenodd" clip-rule="evenodd" d="M3.27098 4.63107L8.11848 9.47905C8.48355 9.84422 9.08102 9.83763 9.44327 9.47528L9.47432 9.44422C9.84127 9.07717 9.84127 8.4814 9.47808 8.11905L4.63152 3.27013C4.26645 2.9059 3.66898 2.91249 3.30673 3.27484L3.27568 3.3059C3.09221 3.49037 3 3.73131 3 3.97225C3 4.2113 3.09127 4.45036 3.27098 4.63107Z" fill="#42526E"/>
<path fill-rule="evenodd" clip-rule="evenodd" d="M5.06437 9.75H8.71687C9.28687 9.75 9.75 9.28781 9.75 8.71875V5.0625C9.75 4.54406 9.32906 4.125 8.81063 4.125C8.29219 4.125 7.87219 4.54406 7.87219 5.0625V7.875H5.06437C4.545 7.875 4.125 8.295 4.125 8.8125C4.125 9.33 4.545 9.75 5.06437 9.75Z" fill="#42526E"/>
<circle cx="12" cy="12" r="2" fill="#42526E"/>
</svg>
